<svg width="20" height="16" viewBox="0 0 20 16" fill="none" xmlns="http://www.w3.org/2000/svg">
<path d="M9.625 16C8.725 16 8.0125 15.7804 7.4875 15.3412C6.9625 14.902 6.7 14.2353 6.7 13.3412H8.4C8.4 13.749 8.49583 14.0588 8.6875 14.2706C8.87917 14.4824 9.19167 14.5882 9.625 14.5882C10.075 14.5882 10.3958 14.4941 10.5875 14.3059C10.7792 14.1176 10.875 13.7961 10.875 13.3412C10.875 12.8863 10.7792 12.5529 10.5875 12.3412C10.3958 12.1294 10.075 12.0235 9.625 12.0235H0V10.6118H9.625C10.525 10.6118 11.2083 10.8314 11.675 11.2706C12.1417 11.7098 12.375 12.4 12.375 13.3412C12.375 14.2353 12.1417 14.902 11.675 15.3412C11.2083 15.7804 10.525 16 9.625 16ZM0 6.4V4.98824H13.7C14.3167 4.98824 14.7667 4.85098 15.05 4.57647C15.3333 4.30196 15.475 3.84314 15.475 3.2C15.475 2.55686 15.3333 2.09804 15.05 1.82353C14.7667 1.54902 14.3167 1.41176 13.7 1.41176C13.0667 1.41176 12.6083 1.57255 12.325 1.89412C12.0417 2.21569 11.9 2.61961 11.9 3.10588H10.4C10.4 2.19608 10.6917 1.45098 11.275 0.870588C11.8583 0.290196 12.6667 0 13.7 0C14.7167 0 15.5167 0.278431 16.1 0.835294C16.6833 1.39216 16.975 2.18039 16.975 3.2C16.975 4.21961 16.6833 5.00784 16.1 5.56471C15.5167 6.12157 14.7167 6.4 13.7 6.4H0ZM16.8 14.1647V12.7529C17.3833 12.7529 17.8125 12.6 18.0875 12.2941C18.3625 11.9882 18.5 11.5451 18.5 10.9647C18.5 10.3686 18.3458 9.93725 18.0375 9.67059C17.7292 9.40392 17.2833 9.27059 16.7 9.27059H0V7.85882H16.7C17.7333 7.85882 18.5417 8.13333 19.125 8.68235C19.7083 9.23137 20 9.99216 20 10.9647C20 11.9686 19.725 12.7529 19.175 13.3176C18.625 13.8824 17.8333 14.1647 16.8 14.1647Z" fill="white"/>
</svg>
