<svg width="13" height="16" viewBox="0 0 13 16" fill="none" xmlns="http://www.w3.org/2000/svg">
<path d="M6.47969 13.44C6.69635 13.44 6.86224 13.4033 6.97734 13.33C7.09245 13.2567 7.15 13.1467 7.15 13C7.15 12.8533 7.09245 12.74 6.97734 12.66C6.86224 12.58 6.68958 12.54 6.45937 12.54C5.89062 12.54 5.31172 12.3633 4.72266 12.01C4.13359 11.6567 3.75781 11.0333 3.59531 10.14C3.56823 10.02 3.50729 9.92333 3.4125 9.85C3.31771 9.77667 3.21615 9.74 3.10781 9.74C2.95885 9.74 2.84375 9.79667 2.7625 9.91C2.68125 10.0233 2.65417 10.14 2.68125 10.26C2.88438 11.38 3.3651 12.19 4.12344 12.69C4.88177 13.19 5.66719 13.44 6.47969 13.44ZM6.5 16C4.64479 16 3.09766 15.3733 1.85859 14.12C0.619531 12.8667 0 11.3067 0 9.44C0 8.10667 0.538281 6.65667 1.61484 5.09C2.69141 3.52333 4.31979 1.82667 6.5 0C8.68021 1.82667 10.3086 3.52333 11.3852 5.09C12.4617 6.65667 13 8.10667 13 9.44C13 11.3067 12.3805 12.8667 11.1414 14.12C9.90234 15.3733 8.35521 16 6.5 16ZM6.5 14.8C8.01667 14.8 9.27604 14.29 10.2781 13.27C11.2802 12.25 11.7812 10.9733 11.7812 9.44C11.7812 8.38667 11.331 7.19 10.4305 5.85C9.52995 4.51 8.21979 3.09333 6.5 1.6C4.78021 3.09333 3.47005 4.51 2.56953 5.85C1.66901 7.19 1.21875 8.38667 1.21875 9.44C1.21875 10.9733 1.71979 12.25 2.72187 13.27C3.72396 14.29 4.98333 14.8 6.5 14.8Z" fill="white"/>
</svg>
